<mxfile host="Electron" agent="Mozilla/5.0 (Windows NT 10.0; Win64; x64) AppleWebKit/537.36 (KHTML, like Gecko) draw.io/25.0.2 Chrome/128.0.6613.186 Electron/32.2.5 Safari/537.36" version="25.0.2" pages="2">
  <diagram name="exer1" id="xSMOcnjhHYZdhaHFTwZu">
    <mxGraphModel dx="1050" dy="629" grid="1" gridSize="10" guides="1" tooltips="1" connect="1" arrows="1" fold="1" page="1" pageScale="1" pageWidth="827" pageHeight="1169" math="0" shadow="0">
      <root>
        <mxCell id="0" />
        <mxCell id="1" parent="0" />
        <mxCell id="YrIJWvyKGqOhXlnQMOK9-1" value="" style="whiteSpace=wrap;html=1;aspect=fixed;movable=1;resizable=1;rotatable=1;deletable=1;editable=1;locked=0;connectable=1;" parent="1" vertex="1">
          <mxGeometry x="133.5" y="70" width="560" height="560" as="geometry" />
        </mxCell>
        <mxCell id="YrIJWvyKGqOhXlnQMOK9-2" value="SISTEMA DE STREAMING DE VÍDEOS" style="text;html=1;align=center;verticalAlign=middle;whiteSpace=wrap;rounded=0;fontSize=20;shadow=0;glass=0;" parent="1" vertex="1">
          <mxGeometry x="181" y="40" width="466" height="30" as="geometry" />
        </mxCell>
        <mxCell id="YrIJWvyKGqOhXlnQMOK9-3" value="Assinante" style="shape=umlActor;verticalLabelPosition=bottom;verticalAlign=top;html=1;outlineConnect=0;shadow=1;" parent="1" vertex="1">
          <mxGeometry x="30" y="280" width="70" height="140" as="geometry" />
        </mxCell>
        <mxCell id="YrIJWvyKGqOhXlnQMOK9-4" value="Administrador" style="shape=umlActor;verticalLabelPosition=bottom;verticalAlign=top;html=1;outlineConnect=0;shadow=1;" parent="1" vertex="1">
          <mxGeometry x="730" y="300" width="70" height="140" as="geometry" />
        </mxCell>
        <mxCell id="YrIJWvyKGqOhXlnQMOK9-5" value="Reproduzir vídeo" style="ellipse;whiteSpace=wrap;html=1;shadow=1;" parent="1" vertex="1">
          <mxGeometry x="190" y="300" width="100" height="60" as="geometry" />
        </mxCell>
        <mxCell id="YrIJWvyKGqOhXlnQMOK9-6" value="" style="endArrow=block;html=1;rounded=0;shadow=1;endFill=1;exitX=1;exitY=0.3333333333333333;exitDx=0;exitDy=0;exitPerimeter=0;entryX=0;entryY=0.5;entryDx=0;entryDy=0;" parent="1" source="YrIJWvyKGqOhXlnQMOK9-3" target="YrIJWvyKGqOhXlnQMOK9-5" edge="1">
          <mxGeometry width="50" height="50" relative="1" as="geometry">
            <mxPoint x="65" y="260" as="sourcePoint" />
            <mxPoint x="190" y="140" as="targetPoint" />
          </mxGeometry>
        </mxCell>
        <mxCell id="YrIJWvyKGqOhXlnQMOK9-7" value="" style="edgeStyle=orthogonalEdgeStyle;rounded=0;orthogonalLoop=1;jettySize=auto;html=1;dashed=1;endArrow=block;endFill=1;exitX=0;exitY=0.5;exitDx=0;exitDy=0;entryX=1;entryY=0;entryDx=0;entryDy=0;" parent="1" source="YrIJWvyKGqOhXlnQMOK9-9" target="YrIJWvyKGqOhXlnQMOK9-5" edge="1">
          <mxGeometry relative="1" as="geometry">
            <mxPoint x="240" y="270" as="sourcePoint" />
            <mxPoint x="290" y="210" as="targetPoint" />
            <Array as="points">
              <mxPoint x="440" y="260" />
              <mxPoint x="275" y="260" />
            </Array>
          </mxGeometry>
        </mxCell>
        <mxCell id="YrIJWvyKGqOhXlnQMOK9-8" value="EXTEND" style="edgeLabel;html=1;align=center;verticalAlign=middle;resizable=0;points=[];" parent="YrIJWvyKGqOhXlnQMOK9-7" vertex="1" connectable="0">
          <mxGeometry x="0.0364" y="1" relative="1" as="geometry">
            <mxPoint as="offset" />
          </mxGeometry>
        </mxCell>
        <mxCell id="YrIJWvyKGqOhXlnQMOK9-9" value="Ativar legendas" style="ellipse;whiteSpace=wrap;html=1;shadow=1;" parent="1" vertex="1">
          <mxGeometry x="440" y="240" width="100" height="60" as="geometry" />
        </mxCell>
        <mxCell id="YrIJWvyKGqOhXlnQMOK9-10" value="" style="endArrow=block;html=1;rounded=0;shadow=1;endFill=1;exitX=1;exitY=0.5;exitDx=0;exitDy=0;entryX=0;entryY=0.3333333333333333;entryDx=0;entryDy=0;entryPerimeter=0;" parent="1" source="YrIJWvyKGqOhXlnQMOK9-5" target="YrIJWvyKGqOhXlnQMOK9-4" edge="1">
          <mxGeometry width="50" height="50" relative="1" as="geometry">
            <mxPoint x="50" y="230" as="sourcePoint" />
            <mxPoint x="765" y="300" as="targetPoint" />
          </mxGeometry>
        </mxCell>
        <mxCell id="YrIJWvyKGqOhXlnQMOK9-11" value="Fazer Login" style="ellipse;whiteSpace=wrap;html=1;shadow=1;" parent="1" vertex="1">
          <mxGeometry x="190" y="90" width="100" height="60" as="geometry" />
        </mxCell>
        <mxCell id="YrIJWvyKGqOhXlnQMOK9-12" value="" style="endArrow=block;html=1;rounded=0;shadow=1;endFill=1;exitX=0.5;exitY=0;exitDx=0;exitDy=0;exitPerimeter=0;entryX=0;entryY=0.5;entryDx=0;entryDy=0;" parent="1" source="YrIJWvyKGqOhXlnQMOK9-3" target="YrIJWvyKGqOhXlnQMOK9-11" edge="1">
          <mxGeometry width="50" height="50" relative="1" as="geometry">
            <mxPoint x="75" y="270" as="sourcePoint" />
            <mxPoint x="230" y="270" as="targetPoint" />
          </mxGeometry>
        </mxCell>
        <mxCell id="YrIJWvyKGqOhXlnQMOK9-13" value="Fazer download" style="ellipse;whiteSpace=wrap;html=1;shadow=1;" parent="1" vertex="1">
          <mxGeometry x="230" y="430" width="100" height="60" as="geometry" />
        </mxCell>
        <mxCell id="YrIJWvyKGqOhXlnQMOK9-14" value="" style="edgeStyle=orthogonalEdgeStyle;rounded=0;orthogonalLoop=1;jettySize=auto;html=1;dashed=1;endArrow=block;endFill=1;entryX=0;entryY=0.5;entryDx=0;entryDy=0;exitX=1;exitY=0.5;exitDx=0;exitDy=0;" parent="1" source="YrIJWvyKGqOhXlnQMOK9-13" target="YrIJWvyKGqOhXlnQMOK9-16" edge="1">
          <mxGeometry relative="1" as="geometry">
            <mxPoint x="320" y="410" as="sourcePoint" />
            <mxPoint x="281" y="430" as="targetPoint" />
            <Array as="points" />
          </mxGeometry>
        </mxCell>
        <mxCell id="YrIJWvyKGqOhXlnQMOK9-15" value="INCLUDE" style="edgeLabel;html=1;align=center;verticalAlign=middle;resizable=0;points=[];" parent="YrIJWvyKGqOhXlnQMOK9-14" vertex="1" connectable="0">
          <mxGeometry x="0.0364" y="1" relative="1" as="geometry">
            <mxPoint as="offset" />
          </mxGeometry>
        </mxCell>
        <mxCell id="YrIJWvyKGqOhXlnQMOK9-16" value="Verificar assinatura premium" style="ellipse;whiteSpace=wrap;html=1;shadow=1;" parent="1" vertex="1">
          <mxGeometry x="420" y="430" width="100" height="60" as="geometry" />
        </mxCell>
        <mxCell id="YrIJWvyKGqOhXlnQMOK9-17" value="" style="endArrow=block;html=1;rounded=0;entryX=0.5;entryY=0.5;entryDx=0;entryDy=0;entryPerimeter=0;exitX=1;exitY=0.5;exitDx=0;exitDy=0;endFill=1;" parent="1" source="YrIJWvyKGqOhXlnQMOK9-16" target="YrIJWvyKGqOhXlnQMOK9-4" edge="1">
          <mxGeometry width="50" height="50" relative="1" as="geometry">
            <mxPoint x="410" y="400" as="sourcePoint" />
            <mxPoint x="460" y="350" as="targetPoint" />
          </mxGeometry>
        </mxCell>
        <mxCell id="YrIJWvyKGqOhXlnQMOK9-18" value="Comentar no vídeo" style="ellipse;whiteSpace=wrap;html=1;shadow=1;" parent="1" vertex="1">
          <mxGeometry x="320" y="150" width="100" height="60" as="geometry" />
        </mxCell>
        <mxCell id="YrIJWvyKGqOhXlnQMOK9-19" value="" style="edgeStyle=orthogonalEdgeStyle;rounded=0;orthogonalLoop=1;jettySize=auto;html=1;dashed=1;endArrow=block;endFill=1;exitX=0;exitY=0.5;exitDx=0;exitDy=0;entryX=0.5;entryY=0;entryDx=0;entryDy=0;" parent="1" source="YrIJWvyKGqOhXlnQMOK9-18" target="YrIJWvyKGqOhXlnQMOK9-5" edge="1">
          <mxGeometry relative="1" as="geometry">
            <mxPoint x="355" y="221" as="sourcePoint" />
            <mxPoint x="190" y="240" as="targetPoint" />
            <Array as="points">
              <mxPoint x="240" y="180" />
            </Array>
          </mxGeometry>
        </mxCell>
        <mxCell id="YrIJWvyKGqOhXlnQMOK9-20" value="EXTEND" style="edgeLabel;html=1;align=center;verticalAlign=middle;resizable=0;points=[];" parent="YrIJWvyKGqOhXlnQMOK9-19" vertex="1" connectable="0">
          <mxGeometry x="0.0364" y="1" relative="1" as="geometry">
            <mxPoint as="offset" />
          </mxGeometry>
        </mxCell>
        <mxCell id="YrIJWvyKGqOhXlnQMOK9-21" value="" style="endArrow=block;html=1;rounded=0;shadow=1;endFill=1;exitX=1;exitY=0.5;exitDx=0;exitDy=0;entryX=0.5;entryY=0;entryDx=0;entryDy=0;entryPerimeter=0;" parent="1" source="YrIJWvyKGqOhXlnQMOK9-18" target="YrIJWvyKGqOhXlnQMOK9-4" edge="1">
          <mxGeometry width="50" height="50" relative="1" as="geometry">
            <mxPoint x="110" y="317" as="sourcePoint" />
            <mxPoint x="770" y="280" as="targetPoint" />
          </mxGeometry>
        </mxCell>
        <mxCell id="YrIJWvyKGqOhXlnQMOK9-22" value="" style="edgeStyle=orthogonalEdgeStyle;rounded=0;orthogonalLoop=1;jettySize=auto;html=1;dashed=1;endArrow=block;endFill=1;exitX=0.5;exitY=0;exitDx=0;exitDy=0;entryX=1;entryY=1;entryDx=0;entryDy=0;" parent="1" source="YrIJWvyKGqOhXlnQMOK9-13" target="YrIJWvyKGqOhXlnQMOK9-5" edge="1">
          <mxGeometry relative="1" as="geometry">
            <mxPoint x="435" y="391" as="sourcePoint" />
            <mxPoint x="280" y="360" as="targetPoint" />
            <Array as="points">
              <mxPoint x="270" y="351" />
            </Array>
          </mxGeometry>
        </mxCell>
        <mxCell id="YrIJWvyKGqOhXlnQMOK9-23" value="EXTEND" style="edgeLabel;html=1;align=center;verticalAlign=middle;resizable=0;points=[];" parent="YrIJWvyKGqOhXlnQMOK9-22" vertex="1" connectable="0">
          <mxGeometry x="0.0364" y="1" relative="1" as="geometry">
            <mxPoint as="offset" />
          </mxGeometry>
        </mxCell>
        <mxCell id="YrIJWvyKGqOhXlnQMOK9-24" value="Reportar conteúdo inadequado" style="ellipse;whiteSpace=wrap;html=1;shadow=1;" parent="1" vertex="1">
          <mxGeometry x="150" y="525" width="100" height="60" as="geometry" />
        </mxCell>
        <mxCell id="YrIJWvyKGqOhXlnQMOK9-25" value="" style="edgeStyle=orthogonalEdgeStyle;rounded=0;orthogonalLoop=1;jettySize=auto;html=1;dashed=1;endArrow=block;endFill=1;exitX=0.5;exitY=0;exitDx=0;exitDy=0;entryX=0;entryY=1;entryDx=0;entryDy=0;" parent="1" source="YrIJWvyKGqOhXlnQMOK9-24" target="YrIJWvyKGqOhXlnQMOK9-5" edge="1">
          <mxGeometry relative="1" as="geometry">
            <mxPoint x="280" y="440" as="sourcePoint" />
            <mxPoint x="285" y="361" as="targetPoint" />
            <Array as="points">
              <mxPoint x="200" y="361" />
              <mxPoint x="205" y="361" />
            </Array>
          </mxGeometry>
        </mxCell>
        <mxCell id="YrIJWvyKGqOhXlnQMOK9-26" value="EXTEND" style="edgeLabel;html=1;align=center;verticalAlign=middle;resizable=0;points=[];" parent="YrIJWvyKGqOhXlnQMOK9-25" vertex="1" connectable="0">
          <mxGeometry x="0.0364" y="1" relative="1" as="geometry">
            <mxPoint as="offset" />
          </mxGeometry>
        </mxCell>
        <mxCell id="YrIJWvyKGqOhXlnQMOK9-27" value="" style="endArrow=block;html=1;rounded=0;exitX=1;exitY=0.5;exitDx=0;exitDy=0;entryX=0;entryY=1;entryDx=0;entryDy=0;entryPerimeter=0;endFill=1;" parent="1" source="YrIJWvyKGqOhXlnQMOK9-24" target="YrIJWvyKGqOhXlnQMOK9-4" edge="1">
          <mxGeometry width="50" height="50" relative="1" as="geometry">
            <mxPoint x="530" y="470" as="sourcePoint" />
            <mxPoint x="775" y="380" as="targetPoint" />
            <Array as="points">
              <mxPoint x="610" y="510" />
            </Array>
          </mxGeometry>
        </mxCell>
      </root>
    </mxGraphModel>
  </diagram>
  <diagram id="Lv1ErXn1hhEAr1s2icuF" name="exer2">
    <mxGraphModel dx="1050" dy="629" grid="1" gridSize="10" guides="1" tooltips="1" connect="1" arrows="1" fold="1" page="1" pageScale="1" pageWidth="827" pageHeight="1169" math="0" shadow="0">
      <root>
        <mxCell id="0" />
        <mxCell id="1" parent="0" />
        <mxCell id="epMHkh3ms028tsrIHQUw-1" value="" style="whiteSpace=wrap;html=1;aspect=fixed;movable=0;resizable=0;rotatable=0;deletable=0;editable=0;locked=1;connectable=0;" vertex="1" parent="1">
          <mxGeometry x="133.5" y="70" width="560" height="560" as="geometry" />
        </mxCell>
        <mxCell id="k8E2la9xIkWWcUYRDLYx-1" value="SISTEMA DE AGENDAMENTO DE BARBEARIA" style="text;html=1;align=center;verticalAlign=middle;whiteSpace=wrap;rounded=0;fontSize=20;shadow=0;glass=0;" vertex="1" parent="1">
          <mxGeometry x="181" y="40" width="466" height="30" as="geometry" />
        </mxCell>
        <mxCell id="kY3-4tB9xTzjUaczn7XI-1" value="Usuário" style="shape=umlActor;verticalLabelPosition=bottom;verticalAlign=top;html=1;outlineConnect=0;shadow=1;" vertex="1" parent="1">
          <mxGeometry x="30" y="280" width="70" height="140" as="geometry" />
        </mxCell>
        <mxCell id="-1xVZFn8DpPtTs2-Dnv7-1" value="Funcionários" style="shape=umlActor;verticalLabelPosition=bottom;verticalAlign=top;html=1;outlineConnect=0;shadow=1;" vertex="1" parent="1">
          <mxGeometry x="730" y="300" width="70" height="140" as="geometry" />
        </mxCell>
        <mxCell id="jaJKYwxXXEcJooXb7A9R-1" value="Fazer Login" style="ellipse;whiteSpace=wrap;html=1;shadow=1;" vertex="1" parent="1">
          <mxGeometry x="200" y="250" width="100" height="60" as="geometry" />
        </mxCell>
        <mxCell id="7mircuqy2nBjQ-w3ql7n-1" value="Realizar agendamento" style="ellipse;whiteSpace=wrap;html=1;shadow=1;" vertex="1" parent="1">
          <mxGeometry x="190" y="555" width="100" height="60" as="geometry" />
        </mxCell>
        <mxCell id="7mircuqy2nBjQ-w3ql7n-2" value="" style="endArrow=block;html=1;rounded=0;exitX=1;exitY=1;exitDx=0;exitDy=0;exitPerimeter=0;entryX=0;entryY=0.5;entryDx=0;entryDy=0;endFill=1;" edge="1" parent="1" source="kY3-4tB9xTzjUaczn7XI-1" target="7mircuqy2nBjQ-w3ql7n-1">
          <mxGeometry width="50" height="50" relative="1" as="geometry">
            <mxPoint x="75" y="290" as="sourcePoint" />
            <mxPoint x="200" y="130" as="targetPoint" />
          </mxGeometry>
        </mxCell>
        <mxCell id="hl9UAPViGKtpgWDnpA3c-1" value="Realizar cadastro" style="ellipse;whiteSpace=wrap;html=1;shadow=1;" vertex="1" parent="1">
          <mxGeometry x="190" y="90" width="100" height="60" as="geometry" />
        </mxCell>
        <mxCell id="8UUr5HZ61ceb_6OtizNW-2" value="" style="endArrow=block;html=1;rounded=0;dashed=1;endFill=1;exitX=1;exitY=0.5;exitDx=0;exitDy=0;entryX=0;entryY=0.5;entryDx=0;entryDy=0;" edge="1" parent="1" source="7mircuqy2nBjQ-w3ql7n-1" target="4K3I-8hOc7HxL4R5G75J-1">
          <mxGeometry width="50" height="50" relative="1" as="geometry">
            <mxPoint x="400" y="585" as="sourcePoint" />
            <mxPoint x="390" y="480" as="targetPoint" />
          </mxGeometry>
        </mxCell>
        <mxCell id="OjL7KCozke7iyqb-wA6R-5" value="INCLUDE" style="edgeLabel;html=1;align=center;verticalAlign=middle;resizable=0;points=[];" vertex="1" connectable="0" parent="8UUr5HZ61ceb_6OtizNW-2">
          <mxGeometry x="-0.0065" y="1" relative="1" as="geometry">
            <mxPoint as="offset" />
          </mxGeometry>
        </mxCell>
        <mxCell id="8UUr5HZ61ceb_6OtizNW-6" value="" style="endArrow=block;html=1;rounded=0;exitX=0.75;exitY=0.1;exitDx=0;exitDy=0;exitPerimeter=0;entryX=0;entryY=0.5;entryDx=0;entryDy=0;endFill=1;" edge="1" parent="1" source="kY3-4tB9xTzjUaczn7XI-1" target="jaJKYwxXXEcJooXb7A9R-1">
          <mxGeometry width="50" height="50" relative="1" as="geometry">
            <mxPoint x="110" y="430" as="sourcePoint" />
            <mxPoint x="200" y="595" as="targetPoint" />
          </mxGeometry>
        </mxCell>
        <mxCell id="8UUr5HZ61ceb_6OtizNW-8" value="" style="endArrow=block;html=1;rounded=0;exitX=0.5;exitY=0;exitDx=0;exitDy=0;exitPerimeter=0;entryX=0;entryY=0.5;entryDx=0;entryDy=0;endFill=1;" edge="1" parent="1" source="kY3-4tB9xTzjUaczn7XI-1" target="hl9UAPViGKtpgWDnpA3c-1">
          <mxGeometry width="50" height="50" relative="1" as="geometry">
            <mxPoint x="110" y="337" as="sourcePoint" />
            <mxPoint x="200" y="340" as="targetPoint" />
          </mxGeometry>
        </mxCell>
        <mxCell id="4K3I-8hOc7HxL4R5G75J-1" value="Selecionar forma de pagamento" style="ellipse;whiteSpace=wrap;html=1;shadow=1;" vertex="1" parent="1">
          <mxGeometry x="414" y="555" width="100" height="60" as="geometry" />
        </mxCell>
        <mxCell id="4K3I-8hOc7HxL4R5G75J-3" value="" style="endArrow=block;html=1;rounded=0;exitX=1;exitY=0.5;exitDx=0;exitDy=0;entryX=0;entryY=1;entryDx=0;entryDy=0;endFill=1;entryPerimeter=0;" edge="1" parent="1" source="4K3I-8hOc7HxL4R5G75J-1" target="-1xVZFn8DpPtTs2-Dnv7-1">
          <mxGeometry width="50" height="50" relative="1" as="geometry">
            <mxPoint x="110" y="430" as="sourcePoint" />
            <mxPoint x="200" y="595" as="targetPoint" />
          </mxGeometry>
        </mxCell>
        <mxCell id="4K3I-8hOc7HxL4R5G75J-5" value="" style="endArrow=block;html=1;rounded=0;exitX=1;exitY=0.5;exitDx=0;exitDy=0;entryX=0.5;entryY=0;entryDx=0;entryDy=0;endFill=1;entryPerimeter=0;" edge="1" parent="1" source="hl9UAPViGKtpgWDnpA3c-1" target="-1xVZFn8DpPtTs2-Dnv7-1">
          <mxGeometry width="50" height="50" relative="1" as="geometry">
            <mxPoint x="75" y="290" as="sourcePoint" />
            <mxPoint x="200" y="130" as="targetPoint" />
          </mxGeometry>
        </mxCell>
        <mxCell id="OjL7KCozke7iyqb-wA6R-6" value="Aba &quot;Conheça nossa história&quot;" style="ellipse;whiteSpace=wrap;html=1;shadow=1;" vertex="1" parent="1">
          <mxGeometry x="190" y="390" width="100" height="60" as="geometry" />
        </mxCell>
        <mxCell id="OjL7KCozke7iyqb-wA6R-7" value="" style="endArrow=block;html=1;rounded=0;exitX=0.5;exitY=0.5;exitDx=0;exitDy=0;exitPerimeter=0;entryX=0;entryY=0.5;entryDx=0;entryDy=0;endFill=1;" edge="1" parent="1" source="kY3-4tB9xTzjUaczn7XI-1" target="OjL7KCozke7iyqb-wA6R-6">
          <mxGeometry width="50" height="50" relative="1" as="geometry">
            <mxPoint x="93" y="304" as="sourcePoint" />
            <mxPoint x="210" y="290" as="targetPoint" />
          </mxGeometry>
        </mxCell>
      </root>
    </mxGraphModel>
  </diagram>
</mxfile>
